<svg width="48" height="48" viewBox="0 0 48 48" fill="none" xmlns="http://www.w3.org/2000/svg">
  <path fill="#023047" d="M24 15.3C19.2 15.3 15.3 19.2 15.3 24C15.3 28.8 19.2 32.7 24 32.7C28.8 32.7 32.7 28.8 32.7 24C32.7 19.2 28.8 15.3 24 15.3ZM24 29.9C20.8 29.9 18.1 27.2 18.1 24C18.1 20.8 20.8 18.1 24 18.1C27.2 18.1 29.9 20.8 29.9 24C29.9 27.2 27.2 29.9 24 29.9ZM34.2 14.8C33.1 14.8 32.2 15.7 32.2 16.8C32.2 17.9 33.1 18.8 34.2 18.8C35.3 18.8 36.2 17.9 36.2 16.8C36.2 15.7 35.3 14.8 34.2 14.8ZM40 13.2C39.9 11.3 38.7 9.6 36.9 8.5C35.3 7.6 32.4 7.3 24 7.3C15.6 7.3 12.7 7.6 11.1 8.5C9.3 9.6 8.1 11.3 8 13.2C7.1 15 7.3 18.1 7.3 24C7.3 29.9 7.1 33 8 34.8C8.1 36.7 9.3 38.4 11.1 39.5C12.7 40.4 15.6 40.7 24 40.7C32.4 40.7 35.3 40.4 36.9 39.5C38.7 38.4 39.9 36.7 40 34.8C40.9 33 40.7 29.9 40.7 24C40.7 18.1 40.9 15 40 13.2ZM37.9 36.3C36.7 37.1 33.9 37.3 24 37.3C14.1 37.3 11.3 37.1 10.1 36.3C8.9 35.5 8.3 34 8.3 24C8.3 14 8.9 12.5 10.1 11.7C11.3 10.9 14.1 10.7 24 10.7C33.9 10.7 36.7 10.9 37.9 11.7C39.1 12.5 39.7 14 39.7 24C39.7 34 39.1 35.5 37.9 36.3Z"/>
</svg>