<svg width="48" height="48" viewBox="0 0 48 48" fill="none" xmlns="http://www.w3.org/2000/svg">
  <path fill="#023047" d="M42 14.1C40.6 14.8 39.1 15.3 37.5 15.5C39.2 14.5 40.5 12.8 41.1 10.8C39.6 11.7 37.9 12.3 36.1 12.6C34.7 11.1 32.8 10.2 30.6 10.2C26.4 10.2 23 13.6 23 17.8C23 18.4 23.1 19 23.2 19.6C17.1 19.3 11.7 16.3 7.9 11.9C7.3 13 7 14.2 7 15.5C7 18.2 8.4 20.5 10.5 21.9C9.3 21.9 8.2 21.5 7.3 20.9C7.3 21 7.3 21.2 7.3 21.3C7.3 25.2 10 28.5 13.6 29.3C12.9 29.5 12.2 29.6 11.4 29.6C10.9 29.6 10.3 29.6 9.8 29.4C11 32.6 14 34.9 17.6 34.9C14.6 37 10.9 38.1 7 38.1C6.4 38.1 5.8 38.1 5.2 38C8.9 40.2 13.2 41.4 17.8 41.4C30.6 41.4 37.7 29.8 37.7 19.1C37.7 18.7 37.7 18.2 37.6 17.8C39.1 16.8 40.4 15.6 41.5 14.2L42 14.1Z"/>
</svg>